@startuml
skinparam state {
    BackgroundColor #F0F8FF
    BorderColor #333
    FontSize 14
    FontName Arial
}


[*] --> CreandoPublicacion
CreandoPublicacion --> PublicacionActiva
PublicacionActiva -->PublicacionDesactivada
PublicacionDesactivada  --> PublicacionActiva
PublicacionActiva --> [*] : "Publicación Eliminada"
PublicacionDesactivada  --> [*] : "Publicación Eliminada"

@enduml